<svg width="1855" height="279" viewBox="0 0 1855 279" fill="none" xmlns="http://www.w3.org/2000/svg">
<g clip-path="url(#clip0)">
<path d="M3.7998 275.3L270 9.10001" stroke="black" stroke-width="9"/>
<path d="M4.5 211.9V68.3L68.8 4.5L191.2 5.2" stroke="black" stroke-width="9"/>
<path d="M4.7998 68.5H69.7998" stroke="black" stroke-width="9"/>
<path d="M69.5 6.7V69.9" stroke="black" stroke-width="9"/>
<path d="M211.1 239.5C231.093 239.5 247.3 223.293 247.3 203.3C247.3 183.307 231.093 167.1 211.1 167.1C191.107 167.1 174.9 183.307 174.9 203.3C174.9 223.293 191.107 239.5 211.1 239.5Z" stroke="black" stroke-width="9"/>
<path d="M1783.7 20.1V135.9C1783.7 174.7 1815.1 206.1 1853.9 206.1" stroke="black" stroke-width="12" stroke-miterlimit="10"/>
<path d="M1854.2 77.5H1736.3" stroke="black" stroke-width="12" stroke-miterlimit="10"/>
<path d="M1723.4 92C1723.4 92 1709.3 62.9 1658.5 65.3C1658.5 65.3 1618.6 67.1 1613.5 90.5C1613.5 90.5 1600.1 134 1666.8 134L1669 134.2C1735.8 134.2 1722.3 177.7 1722.3 177.7C1717.2 201.1 1677.3 202.9 1677.3 202.9C1626.5 205.3 1612.4 176.2 1612.4 176.2" stroke="black" stroke-width="12" stroke-miterlimit="10"/>
<path d="M1576 260.1V135.4V64.6V135.4C1576 174.5 1544.3 206.2 1505.2 206.2C1466.1 206.2 1434.4 174.5 1434.4 135.4V64.6" stroke="black" stroke-width="12" stroke-miterlimit="10"/>
<path d="M1394.8 92C1394.8 92 1380.7 62.9 1329.9 65.3C1329.9 65.3 1290 67.1 1284.9 90.5C1284.9 90.5 1271.5 134 1338.2 134L1340.4 134.2C1407.2 134.2 1393.7 177.7 1393.7 177.7C1388.6 201.1 1348.7 202.9 1348.7 202.9C1297.9 205.3 1283.8 176.2 1283.8 176.2" stroke="black" stroke-width="12" stroke-miterlimit="10"/>
<path d="M1265.6 199.9C1226.8 199.9 1195.4 168.5 1195.4 129.7V19.9" stroke="black" stroke-width="12" stroke-miterlimit="10"/>
<path d="M1081.1 199.9C1119.87 199.9 1151.3 168.47 1151.3 129.7C1151.3 90.9296 1119.87 59.5 1081.1 59.5C1042.33 59.5 1010.9 90.9296 1010.9 129.7C1010.9 168.47 1042.33 199.9 1081.1 199.9Z" stroke="black" stroke-width="12" stroke-miterlimit="10"/>
<path d="M919.6 199.9C958.37 199.9 989.8 168.47 989.8 129.7C989.8 90.9296 958.37 59.5 919.6 59.5C880.829 59.5 849.4 90.9296 849.4 129.7C849.4 168.47 880.829 199.9 919.6 199.9Z" stroke="black" stroke-width="12" stroke-miterlimit="10"/>
<path d="M688.6 20.3V129.6V199.8V129C688.6 89.9 720.3 58.2 759.4 58.2C798.5 58.2 830.2 89.9 830.2 129V199.8" stroke="black" stroke-width="12" stroke-miterlimit="10"/>
<path d="M660.4 80.5C640 60 611.1 60 611.1 60C572.3 60 540.9 91.4 540.9 130.2C540.9 169 572.3 200.4 611.1 200.4C611.1 200.4 637.8 201.9 660.3 179.4" stroke="black" stroke-width="12" stroke-miterlimit="10"/>
<path d="M522 86.6C522 86.6 507.9 57.5 457.1 59.9C457.1 59.9 417.2 61.7 412.1 85.1C412.1 85.1 398.7 128.6 465.4 128.6L467.6 128.8C534.4 128.8 520.9 172.3 520.9 172.3C515.8 195.7 475.9 197.5 475.9 197.5C425.1 199.9 411 170.8 411 170.8" stroke="black" stroke-width="12" stroke-miterlimit="10"/>
</g>
<defs>
<clipPath id="clip0">
<rect width="1854.2" height="278.4" fill="white"/>
</clipPath>
</defs>
</svg>
