<svg width="1766" height="293" viewBox="0 0 1766 293" fill="none" xmlns="http://www.w3.org/2000/svg">
<g clip-path="url(#clip0)">
<path d="M1679.3 0.300003V141.4C1679.3 188.7 1717.6 227 1764.9 227" stroke="black" stroke-width="13" stroke-miterlimit="10"/>
<path d="M1765.2 70.2H1621.5" stroke="black" stroke-width="13" stroke-miterlimit="10"/>
<path d="M1605.8 88C1605.8 88 1588.6 52.5 1526.7 55.5C1526.7 55.5 1478.1 57.7 1471.9 86.2C1471.9 86.2 1455.5 139.2 1536.9 139.2L1539.5 139.4C1620.8 139.4 1604.5 192.4 1604.5 192.4C1598.3 220.9 1549.7 223.1 1549.7 223.1C1487.8 226 1470.6 190.6 1470.6 190.6" stroke="black" stroke-width="13" stroke-miterlimit="10"/>
<path d="M1426.2 292.8V140.8V54.5V140.8C1426.2 188.5 1387.6 227.1 1339.9 227.1C1292.2 227.1 1253.6 188.5 1253.6 140.8V54.5" stroke="black" stroke-width="13" stroke-miterlimit="10"/>
<path d="M1205.4 88C1205.4 88 1188.2 52.5 1126.3 55.5C1126.3 55.5 1077.7 57.7 1071.5 86.2C1071.5 86.2 1055.1 139.2 1136.5 139.2L1139.1 139.4C1220.4 139.4 1204.1 192.4 1204.1 192.4C1197.9 220.9 1149.3 223.1 1149.3 223.1C1087.4 226 1070.2 190.6 1070.2 190.6" stroke="black" stroke-width="13" stroke-miterlimit="10"/>
<path d="M1047.9 219.4C1000.6 219.4 962.3 181.1 962.3 133.8V0" stroke="black" stroke-width="13" stroke-miterlimit="10"/>
<path d="M823.1 219.4C870.376 219.4 908.7 181.076 908.7 133.8C908.7 86.5244 870.376 48.2 823.1 48.2C775.824 48.2 737.5 86.5244 737.5 133.8C737.5 181.076 775.824 219.4 823.1 219.4Z" stroke="black" stroke-width="13" stroke-miterlimit="10"/>
<path d="M626.3 219.4C673.576 219.4 711.9 181.076 711.9 133.8C711.9 86.5244 673.576 48.2 626.3 48.2C579.025 48.2 540.7 86.5244 540.7 133.8C540.7 181.076 579.025 219.4 626.3 219.4Z" stroke="black" stroke-width="13" stroke-miterlimit="10"/>
<path d="M344.8 0.600006V133.8V219.4V133.1C344.8 85.4 383.4 46.8 431.1 46.8C478.8 46.8 517.4 85.4 517.4 133.1V219.4" stroke="black" stroke-width="13" stroke-miterlimit="10"/>
<path d="M310.4 73.8C285.5 48.9 250.4 48.9 250.4 48.9C203.1 48.9 164.8 87.2 164.8 134.5C164.8 181.8 203.1 220.1 250.4 220.1C250.4 220.1 282.9 221.9 310.4 194.5" stroke="black" stroke-width="13" stroke-miterlimit="10"/>
<path d="M141.8 81.3C141.8 81.3 124.6 45.8 62.7002 48.8C62.7002 48.8 14.1002 51 7.90024 79.5C7.90024 79.5 -8.49976 132.5 72.9002 132.5L75.5002 132.7C156.8 132.7 140.5 185.7 140.5 185.7C134.3 214.2 85.7002 216.4 85.7002 216.4C23.8002 219.3 6.60024 183.9 6.60024 183.9" stroke="black" stroke-width="13" stroke-miterlimit="10"/>
</g>
<defs>
<clipPath id="clip0">
<rect width="1765.2" height="292.8" fill="white"/>
</clipPath>
</defs>
</svg>
