
<svg
    xmlns="http://www.w3.org/2000/svg"
    viewBox="0 0 24 24"
    id="vector"
    width="24px"
    height="24px">
    <path
        id="path_1"
        d="M 1.864 22.127 L 21.925 2.065"
        fill="transparent"
        stroke="#000000"
        stroke-width="0.214791"/>
    <path
        id="path_2"
        d="M 1.939 6.544 L 6.837 6.544"
        fill="transparent"
        stroke="#000000"
        stroke-width="0.214791"/>
    <path
        id="path_4"
        d="M 6.814 1.883 L 6.814 6.652"
        fill="transparent"
        stroke="#000000"
        stroke-width="0.214791"
        stroke-dasharray="0,4.769"
        stroke-dashoffset="4.769"/>
    <path
        id="path_3"
        d="M 1.918 17.348 L 1.918 6.523 L 6.761 1.721 L 15.986 1.776"
        fill="#00000000"
        stroke="#000000"
        stroke-width="0.214791"/>
    <path
        id="path_5"
        d="M 17.489 13.976 C 16.766 13.976 16.072 14.264 15.561 14.775 C 15.049 15.286 14.762 15.981 14.762 16.704 C 14.762 17.427 15.049 18.121 15.561 18.633 C 16.072 19.144 16.766 19.432 17.489 19.432 C 18.213 19.432 18.907 19.144 19.418 18.633 C 19.93 18.121 20.217 17.427 20.217 16.704 C 20.217 15.981 19.93 15.286 19.418 14.775 C 18.907 14.264 18.213 13.976 17.489 13.976 Z"
        fill="#00000000"
        stroke="#000000"
        stroke-width="0.214791"/>
    <path
        id="path_6"
        d="M 6.814 1.883 L 6.814 6.652"
        fill="transparent"
        stroke="#000000"
        stroke-width="0.214791"/>
</svg>
