<?xml version="1.0" standalone="no"?>
<!DOCTYPE svg PUBLIC "-//W3C//DTD SVG 20010904//EN"
 "http://www.w3.org/TR/2001/REC-SVG-20010904/DTD/svg10.dtd">
<svg version="1.0" xmlns="http://www.w3.org/2000/svg"
 width="760.000000pt" height="760.000000pt" viewBox="0 0 760.000000 760.000000"
 preserveAspectRatio="xMidYMid meet">
<metadata>
Created by potrace 1.11, written by Peter Selinger 2001-2013
</metadata>
<g transform="translate(0.000000,760.000000) scale(0.100000,-0.100000)"
fill="#000000" stroke="none">
<path d="M1955 7201 c-52 -52 -95 -95 -95 -97 0 -2 -25 -27 -56 -56 -50 -47
-448 -441 -1181 -1170 l-253 -251 0 -1768 0 -1769 238 0 239 0 -1 1582 c-1
871 2 1590 5 1598 6 13 103 15 782 15 l775 0 1 235 c0 150 -4 239 -11 247 -6
7 -7 13 -2 13 11 0 11 131 0 148 -4 7 -3 12 1 12 5 0 7 26 6 58 -4 73 -4 72 0
102 2 14 0 37 -4 53 -4 15 -4 27 0 27 4 0 6 15 4 33 -2 17 -4 37 -4 42 1 6 2
54 3 108 2 53 -1 97 -6 97 -5 0 -4 6 1 13 5 6 8 23 6 37 -4 33 -4 39 0 78 2
17 0 32 -3 32 -3 0 -6 9 -6 20 0 11 3 20 6 20 3 0 5 15 3 33 -2 17 -4 37 -4
42 1 14 8 69 9 75 1 3 84 4 184 3 101 0 491 -3 868 -4 447 -3 688 -7 692 -14
5 -7 8 -7 8 0 0 11 85 13 96 3 4 -4 14 -4 23 0 21 10 132 9 149 -1 6 -5 12 -5
12 0 0 9 98 8 107 -1 3 -3 13 -1 22 4 10 5 23 5 31 0 7 -4 24 -4 36 0 14 6 26
5 29 0 3 -6 15 -6 29 0 13 5 26 6 29 4 3 -3 29 -5 59 -5 29 1 60 1 68 1 8 0
53 0 100 -1 47 0 94 0 105 0 19 1 20 8 19 229 0 125 -1 232 -2 237 -1 6 -176
11 -495 13 -1123 6 -2280 13 -2399 15 l-127 2 -96 -94z m-30 -1068 c0 -197 -4
-364 -8 -371 -5 -7 -14 -9 -20 -5 -6 4 -27 6 -47 5 -56 -3 -125 -4 -130 -2
-17 6 -60 4 -60 -2 0 -4 -10 -4 -22 1 -13 5 -27 9 -33 9 -5 0 -20 -4 -32 -9
-13 -5 -23 -5 -23 0 0 5 -16 5 -35 1 -19 -4 -37 -4 -40 1 -3 4 -17 4 -30 -1
-13 -5 -26 -6 -29 -2 -2 4 -22 6 -43 5 -21 -2 -48 -3 -60 -3 -30 1 -52 0 -87
-1 -15 0 -30 2 -32 4 -3 2 138 145 312 318 174 173 337 335 363 361 25 27 48
48 51 48 3 0 5 -161 5 -357z"/>
<path d="M3610 3930 c-1749 -1749 -3180 -3184 -3180 -3188 0 -9 314 -325 327
-329 5 -2 1440 1429 3191 3180 l3183 3183 -166 167 c-91 92 -168 167 -170 167
-3 0 -1436 -1431 -3185 -3180z"/>
<path d="M5537 3404 c-1 -1 -33 -4 -72 -8 -105 -8 -250 -40 -305 -66 -8 -4
-51 -24 -95 -45 -150 -70 -300 -196 -407 -342 -82 -111 -163 -294 -185 -413
-2 -14 -8 -43 -13 -64 -20 -92 -2 -368 33 -481 26 -85 36 -108 85 -204 45 -87
66 -119 117 -179 45 -53 135 -143 178 -177 45 -35 207 -135 216 -132 3 1 15
-4 26 -10 11 -6 47 -20 80 -31 136 -46 206 -56 365 -56 120 1 167 6 238 23 23
6 61 16 84 22 23 5 47 13 53 18 5 4 38 18 73 31 34 14 62 28 62 31 0 4 11 10
25 13 14 4 25 11 25 16 0 6 6 10 13 10 16 0 145 98 194 148 61 63 112 122 105
122 -4 0 -2 4 4 8 32 22 159 256 148 274 -3 4 -1 8 3 8 9 0 42 114 49 163 1
12 7 43 12 69 9 44 8 245 -1 298 -2 14 -8 43 -12 65 -3 22 -18 76 -33 120 -14
44 -26 82 -27 85 -2 15 -71 140 -110 199 -42 63 -153 185 -219 239 -51 42
-166 113 -231 143 -69 31 -218 77 -275 85 -52 7 -200 20 -203 18z m166 -499
c135 -33 284 -134 358 -241 54 -79 89 -158 107 -244 7 -34 7 -218 0 -255 -10
-54 -70 -186 -106 -234 -40 -54 -117 -131 -131 -131 -5 0 -11 -3 -13 -7 -6
-16 -84 -60 -140 -81 -84 -31 -102 -35 -216 -37 -91 -2 -136 3 -192 23 -8 3
-21 6 -28 8 -16 3 -85 37 -130 64 -48 29 -152 125 -152 141 0 3 -9 17 -21 30
-45 51 -96 177 -106 259 -8 71 -10 154 -4 165 3 5 6 21 7 35 3 32 8 53 29 114
35 103 126 222 222 292 69 51 182 97 263 109 25 4 46 8 48 9 7 8 152 -5 205
-19z"/>
</g>
</svg>
