<?xml version="1.0" standalone="no"?>
<!DOCTYPE svg PUBLIC "-//W3C//DTD SVG 20010904//EN"
 "http://www.w3.org/TR/2001/REC-SVG-20010904/DTD/svg10.dtd">
<svg version="1.0" xmlns="http://www.w3.org/2000/svg"
 width="700.000000pt" height="700.000000pt" viewBox="0 0 700.000000 700.000000"
 preserveAspectRatio="xMidYMid meet">
<metadata>
Created by potrace 1.11, written by Peter Selinger 2001-2013
</metadata>
<g transform="translate(0.000000,700.000000) scale(0.100000,-0.100000)"
fill="#000000" stroke="none">
<path d="M1635 6369 c-154 -153 -491 -487 -750 -743 l-470 -464 -1 -1611 0
-1612 145 3 146 3 0 1493 c0 1137 3 1495 12 1500 6 4 295 7 642 7 552 0 630 2
634 15 2 8 3 34 2 58 l-1 42 67 0 c45 0 68 4 71 13 2 6 3 297 3 645 l-1 634
1120 -7 c617 -4 1185 -8 1264 -8 l142 -2 1 30 c3 147 3 248 -1 255 -3 5 -496
11 -1095 15 -600 4 -1216 8 -1370 9 l-280 2 -280 -277z m206 -669 c0 -249 -2
-455 -6 -458 -8 -8 -906 -8 -911 0 -2 3 186 194 417 425 232 230 438 435 458
455 19 20 37 35 39 33 2 -2 4 -207 3 -455z"/>
<path d="M3366 3576 l-2926 -2926 100 -100 c56 -55 104 -100 108 -100 11 0
5842 5834 5842 5845 0 6 -45 55 -99 109 l-99 98 -2926 -2926z"/>
<path d="M5000 3064 c-120 -21 -154 -29 -214 -50 -275 -96 -505 -335 -584
-609 -35 -117 -41 -175 -37 -310 4 -142 22 -223 77 -350 125 -288 417 -508
728 -550 58 -7 213 -7 265 0 314 47 595 260 726 552 236 526 -63 1144 -626
1293 -77 20 -276 35 -335 24z m255 -305 c173 -41 346 -180 424 -339 54 -110
74 -208 68 -325 -15 -291 -211 -526 -501 -600 -83 -21 -249 -14 -337 14 -107
34 -202 93 -283 176 -66 68 -142 210 -161 302 -14 62 -13 210 2 278 54 256
278 467 537 505 66 10 188 5 251 -11z"/>
</g>
</svg>
